# xmcd
#
# Track frame offsets:
# 150
# 22031
# 38694
# 56043
# 69870
# 82756
# 98399
# 119053
# 137258
# 156717
# 170835
# 188415
#
# Disc length: 2751 seconds
#
#
# Revision: 0
# Processed by: cddbd v1.5.2PL0 Copyright (c) Steve Scherf et al.
# Submitted via: FreeRIP 2.96 
#
DISCID=950abd0c
DTITLE=Ringo Starr - Liverpool 8
DYEAR=2008
DGENRE=Rock
TTITLE0=Liverpool 8
TTITLE1=Think About You
TTITLE2=For Love
TTITLE3=Now Thet She's Gone Away
TTITLE4=Gone Are The Days
TTITLE5=Give It A Try
TTITLE6=Tuff Love
TTITLE7=Harry's Song
TTITLE8=Pasodobles
TTITLE9=If It's Love That You Want
TTITLE10=Love Is
TTITLE11=R U Ready?
EXTD=
EXTT0=
EXTT1=
EXTT2=
EXTT3=
EXTT4=
EXTT5=
EXTT6=
EXTT7=
EXTT8=
EXTT9=
EXTT10=
EXTT11=
PLAYORDER=
